<?xml version="1.0" standalone="no"?>
<!DOCTYPE svg PUBLIC "-//W3C//DTD SVG 20010904//EN"
 "http://www.w3.org/TR/2001/REC-SVG-20010904/DTD/svg10.dtd">
<svg version="1.0" xmlns="http://www.w3.org/2000/svg"
 width="400.000000pt" height="400.000000pt" viewBox="0 0 400.000000 400.000000"
 preserveAspectRatio="xMidYMid meet">
<metadata>
Created by potrace 1.14, written by Peter Selinger 2001-2017
</metadata>
<g transform="translate(0.000000,400.000000) scale(0.100000,-0.100000)"
fill="#000000" stroke="none">
<path d="M8 3993 c-2 -5 -5 -905 -7 -2000 l-3 -1993 76 0 c42 0 76 4 76 8 0 4
49 100 109 212 60 113 138 259 173 325 34 66 76 135 92 153 27 31 28 35 21 99
-4 36 -14 84 -22 107 -23 64 -41 136 -33 136 51 0 363 -150 515 -247 39 -25
72 -47 74 -49 2 -2 -22 -40 -54 -85 -38 -54 -67 -110 -86 -167 -16 -47 -31
-87 -34 -90 -5 -5 -79 49 -196 144 -68 56 -159 112 -159 99 0 -2 15 -12 33
-21 49 -25 108 -75 101 -85 -3 -5 -2 -8 3 -7 11 3 52 -20 77 -43 11 -11 24
-19 28 -19 5 0 6 -5 2 -12 -4 -7 -3 -8 4 -4 7 4 12 4 12 -1 0 -4 21 -21 45
-38 45 -30 63 -55 24 -35 -20 11 -20 11 -4 -14 12 -18 14 -30 7 -39 -13 -16
-18 -49 -9 -63 10 -16 -18 -90 -33 -86 -6 1 -9 -2 -5 -8 3 -5 -6 -30 -20 -54
-26 -44 -26 -45 -7 -63 60 -57 22 -53 525 -53 l463 0 64 65 c35 36 67 65 70
65 7 0 5 -40 -5 -92 l-7 -38 543 1 544 0 -54 27 -55 26 50 12 c27 6 40 12 29
13 -11 0 -36 -3 -56 -8 -21 -5 -42 -5 -49 -1 -13 8 -6 59 17 125 l13 40 -23
-29 -24 -29 -1 33 c0 18 -6 46 -13 62 -15 38 -5 48 156 164 69 50 123 94 120
101 -2 7 1 15 7 19 8 5 9 -10 5 -53 -8 -73 6 -98 60 -108 53 -10 103 -49 103
-82 0 -37 -75 -106 -141 -131 -29 -11 -55 -24 -57 -30 -2 -6 16 -29 39 -52 23
-22 40 -42 38 -44 -2 -3 -24 -16 -49 -30 l-45 -26 269 0 270 0 -41 35 c-102
87 -165 231 -165 374 -1 96 16 149 69 225 32 46 58 57 81 34 8 -8 1 -22 -30
-57 -63 -72 -81 -121 -81 -226 -1 -79 3 -98 30 -155 39 -84 103 -164 161 -201
36 -23 57 -29 101 -29 l55 0 -54 33 c-77 46 -104 91 -134 230 -6 27 -6 27 45
27 l51 0 -26 -31 c-45 -53 -31 -101 51 -180 69 -67 98 -79 193 -79 l80 0 0
2000 0 2000 -1292 -2 -1292 -3 -12 -45 c-6 -25 -24 -106 -39 -180 -15 -74 -36
-173 -48 -220 -20 -83 -87 -254 -108 -275 -13 -12 -52 32 -45 51 3 8 0 11 -10
7 -15 -6 -20 22 -5 31 4 3 14 61 20 130 13 130 12 137 -31 198 -10 13 -7 23
16 52 23 30 72 66 90 66 2 0 7 -12 9 -27 4 -27 4 -27 6 3 1 42 36 154 55 179
9 11 16 23 16 28 0 4 -297 7 -659 7 -363 0 -661 -3 -663 -7z m517 -152 c3 -10
3 -25 0 -34 -4 -8 -2 -18 4 -22 6 -3 11 -11 11 -18 0 -6 -7 -1 -16 11 -21 30
-58 28 -83 -4 -12 -15 -21 -21 -21 -15 0 7 11 22 23 34 13 12 29 32 36 45 14
27 37 29 46 3z m41 -159 c15 -14 24 -33 22 -45 -1 -12 1 -28 5 -35 5 -7 2 -15
-8 -18 -19 -8 -55 22 -55 46 0 12 -10 19 -29 22 -21 3 -28 1 -24 -9 3 -7 -2
-16 -12 -19 -25 -10 -65 12 -65 36 0 26 -30 26 -53 -1 -10 -11 -27 -19 -39
-17 -24 3 -37 28 -15 28 8 0 26 12 41 26 34 34 80 44 135 27 58 -17 61 -17 62
10 2 20 2 20 6 -3 3 -14 16 -36 29 -48z m308 56 c2 -7 20 -57 40 -112 34 -92
37 -116 16 -116 -15 0 -94 216 -84 231 8 13 24 11 28 -3z m2212 -18 c-53 -21
-84 -45 -73 -57 10 -9 67 -9 95 0 l23 9 -20 -34 c-13 -20 -43 -45 -78 -64 -40
-21 -58 -36 -58 -50 0 -14 6 -18 23 -16 29 4 28 -1 -9 -53 -46 -63 -98 -68
-84 -7 3 13 1 22 -7 22 -9 0 -9 3 0 12 16 16 15 28 -1 28 -9 0 -12 10 -9 30 2
16 1 38 -3 47 -6 16 -8 15 -20 -7 -15 -27 -19 -19 -9 17 4 13 11 20 17 16 5
-3 7 -2 4 4 -9 15 11 79 30 94 15 13 67 20 183 26 l45 3 -49 -20z m154 -95 c4
3 11 -2 14 -11 3 -8 2 -12 -4 -9 -13 8 -13 -8 -1 -20 5 -6 11 -21 13 -35 1
-14 9 -26 16 -26 25 -3 27 -5 12 -14 -13 -9 -13 -10 0 -10 8 -1 4 -6 -10 -11
-19 -8 -21 -12 -11 -18 22 -14 2 -32 -27 -25 -36 9 -35 7 -18 49 21 48 20 91
0 99 -9 3 -31 6 -50 6 l-35 0 18 30 c21 37 26 37 40 3 l11 -28 1 31 c1 42 15
53 19 15 2 -17 7 -29 12 -26z m-2990 40 c0 -2 -10 -9 -22 -15 -22 -11 -22 -10
-4 4 21 17 26 19 26 11z m2935 -135 c9 -28 -12 -60 -48 -75 -43 -17 -107 -28
-107 -18 1 4 13 26 29 47 19 27 41 44 67 52 53 16 52 16 59 -6z m-2410 0 c-8
-13 8 -13 22 1 14 14 44 -1 71 -36 20 -25 21 -25 24 -5 5 33 23 18 21 -17 -3
-42 3 -42 21 0 22 54 112 81 138 43 5 -7 8 -6 8 2 0 10 4 9 16 -2 11 -12 15
-31 13 -68 -3 -43 0 -54 14 -56 35 -7 7 -42 -34 -42 -15 0 -43 -7 -63 -15 -27
-11 -36 -21 -35 -38 1 -16 3 -17 6 -5 5 22 84 52 112 43 29 -9 84 -91 78 -116
-3 -10 -1 -17 4 -13 5 3 9 -2 9 -11 0 -11 -5 -15 -15 -11 -8 3 -15 1 -15 -3 0
-5 6 -11 13 -14 23 -8 -1 -18 -58 -24 -45 -5 -59 -10 -63 -25 -6 -26 -31 -22
-42 7 -14 37 -18 31 -12 -23 4 -41 0 -53 -21 -78 -21 -24 -25 -26 -24 -9 3 29
-57 56 -109 50 -32 -5 -43 -2 -47 10 -4 8 -15 15 -26 15 -24 0 -35 28 -19 47
10 12 7 13 -14 8 -19 -5 -29 -2 -36 11 -10 18 -11 18 -31 -1 -21 -18 -22 -18
-59 3 -20 11 -38 29 -40 39 -3 15 0 14 13 -4 17 -24 40 -30 49 -14 4 5 -2 7
-12 4 -13 -3 -22 4 -31 24 l-13 28 23 -20 c17 -14 20 -15 10 -3 -7 9 -9 23 -5
29 4 8 3 9 -4 5 -18 -11 -14 3 9 35 26 36 74 62 105 56 13 -2 21 0 18 4 -3 5
-20 9 -39 9 -25 0 -35 5 -40 21 -9 28 0 34 30 21 24 -11 25 -10 15 7 -12 23
-12 78 0 106 5 11 9 14 9 8 1 -20 29 -15 41 7 6 11 13 20 16 20 3 0 2 -4 -1
-10z m-235 -28 c19 -8 30 -17 24 -19 -6 -2 -35 8 -65 22 -57 26 -23 24 41 -3z
m-49 -27 c24 -9 49 -13 56 -11 7 3 10 -1 6 -10 -6 -15 -18 -13 -80 12 -18 8
-33 16 -33 19 0 7 3 7 51 -10z m-13 -40 c29 -9 52 -20 52 -25 0 -14 -8 -12
-65 15 -60 28 -56 30 13 10z m24 -51 c19 -12 6 -24 -14 -13 -12 6 -33 16 -47
20 -19 7 -16 7 14 3 22 -3 43 -8 47 -10z m3328 -16 c19 -12 53 -32 75 -44 103
-56 52 -164 -78 -164 -41 0 -53 5 -77 30 -26 28 -46 100 -36 132 3 7 7 25 10
41 5 23 12 27 39 27 17 0 48 -10 67 -22z m-656 -2 c-7 -19 -37 -26 -111 -26
-91 0 -83 21 12 33 74 9 104 7 99 -7z m-2690 -26 c18 -18 1 -17 -39 1 l-40 19
35 -5 c19 -3 39 -10 44 -15z m-35 -31 c33 -12 39 -23 19 -35 -7 -4 -10 -3 -5
1 4 5 -10 16 -30 26 -43 20 -33 25 16 8z m122 -15 c17 -8 28 -18 26 -21 -7 -7
-67 19 -67 29 0 11 7 10 41 -8z m-133 -25 c20 -7 29 -15 25 -25 -4 -11 -7 -11
-20 1 -8 8 -21 15 -28 15 -8 0 -17 5 -20 10 -8 13 4 13 43 -1z m1071 -82 c-7
-29 -12 -113 -13 -187 0 -140 14 -232 54 -341 11 -30 20 -57 20 -60 0 -3 -50
-6 -110 -6 l-111 1 6 85 c12 158 48 315 110 466 18 44 36 89 40 100 14 37 17
-4 4 -58z m-1090 42 c17 -6 31 -15 31 -20 0 -9 -47 8 -64 23 -13 11 -5 10 33
-3z m-13 -40 c44 -11 54 -27 35 -58 -7 -10 -13 -11 -27 -2 -18 10 -17 10 4 11
36 0 21 21 -28 41 -52 21 -47 24 16 8z m2722 -44 c3 -3 0 -19 -5 -37 -9 -26
-11 -28 -12 -10 -1 12 -6 22 -12 22 -5 0 -9 -10 -7 -22 3 -21 -1 -23 -40 -22
-49 1 -52 3 -56 40 -3 22 2 31 18 36 21 7 105 2 114 -7z m-2368 -73 c0 -8 6
-12 14 -9 9 4 16 -3 19 -19 3 -18 1 -22 -6 -15 -15 15 -27 14 -21 -3 4 -11 45
-36 59 -36 2 0 1 9 -2 21 -11 42 42 52 81 15 31 -28 33 -66 7 -90 -21 -19 -46
-13 -37 10 3 8 1 14 -3 14 -15 0 -18 -21 -7 -57 9 -26 15 -33 30 -29 28 7 66
-36 66 -76 0 -51 -12 -62 -60 -55 -23 3 -47 13 -55 23 -12 17 -16 15 -59 -29
-25 -26 -42 -47 -38 -47 5 0 13 5 20 12 6 6 14 9 17 7 3 -3 0 -55 -6 -115 -11
-105 -19 -146 -19 -91 0 29 -17 35 -49 17 -16 -8 -19 -4 -25 29 -5 33 -9 38
-26 34 -14 -4 -20 0 -20 10 0 10 -24 27 -60 43 -33 15 -65 34 -72 42 -9 12 -2
10 24 -5 20 -12 39 -19 42 -16 12 12 5 24 -19 33 -28 11 -31 22 -11 39 16 14
46 4 46 -14 0 -18 21 -24 43 -13 21 11 22 28 1 28 -24 0 -14 54 11 58 45 7 51
12 32 26 -11 9 -15 20 -10 31 4 12 3 16 -5 11 -16 -10 -79 19 -91 42 -18 34
-13 48 24 68 l34 18 29 -27 c15 -15 31 -27 35 -27 4 0 -7 13 -23 29 -17 15
-30 31 -30 35 0 3 28 7 63 7 34 1 51 3 37 6 -60 9 -68 14 -79 44 -14 42 -14
42 10 73 l22 27 33 -32 c19 -18 34 -39 34 -47z m345 38 c-3 -5 -10 -10 -16
-10 -5 0 -9 5 -9 10 0 6 7 10 16 10 8 0 12 -4 9 -10z m-961 -19 c9 -10 16 -25
14 -32 -2 -9 7 -15 25 -17 26 -3 39 12 16 20 -7 2 -9 13 -5 26 9 26 47 30 70
6 19 -18 21 -44 4 -44 -21 0 6 -18 32 -22 17 -2 24 1 22 11 -8 40 68 58 88 21
12 -23 6 -40 -16 -40 -21 0 -17 -18 6 -30 25 -14 40 -5 41 23 1 12 5 2 10 -23
13 -75 11 -90 -11 -90 -11 0 -25 -9 -32 -20 -9 -13 -19 -18 -35 -14 -19 5 -23
1 -28 -29 l-7 -35 -30 16 c-17 8 -54 15 -84 16 -49 1 -53 3 -47 21 13 40 9 60
-11 57 -14 -3 -17 1 -12 13 4 12 -9 34 -44 72 -27 30 -50 60 -50 66 0 7 14 -4
30 -23 26 -31 29 -33 36 -16 5 12 2 22 -9 28 -20 11 -23 58 -4 58 8 0 22 -8
31 -19z m926 -20 c0 -12 -29 -35 -36 -28 -11 10 5 37 21 37 8 0 15 -4 15 -9z
m-425 -30 c-13 -12 -145 -30 -151 -20 -2 4 17 11 43 14 27 3 55 8 63 9 32 7
54 6 45 -3z m425 -41 c8 0 21 -4 29 -9 12 -8 10 -16 -13 -45 -30 -40 -53 -45
-97 -19 -35 21 -36 27 -3 70 24 31 27 32 47 18 12 -8 28 -15 37 -15z m2000 20
c0 -5 -5 -10 -11 -10 -5 0 -7 5 -4 10 3 6 8 10 11 10 2 0 4 -4 4 -10z m-8 -66
c-6 -35 -12 -29 -12 14 0 23 3 32 9 24 4 -7 6 -24 3 -38z m-2162 -60 c0 -8 -4
-12 -10 -9 -5 3 -10 10 -10 16 0 5 5 9 10 9 6 0 10 -7 10 -16z m400 -215 c6
-58 19 -138 30 -177 11 -39 20 -74 20 -76 0 -14 -55 -14 -83 0 l-32 17 24 -26
24 -26 -24 -20 c-21 -17 -25 -18 -33 -4 -18 32 15 352 46 457 l13 41 2 -40 c2
-22 7 -88 13 -146z m-650 146 c0 -8 -35 -37 -77 -65 -58 -37 -81 -46 -90 -38
-16 13 -19 11 69 69 78 51 98 58 98 34z m504 -152 c-30 -191 -5 -395 67 -542
41 -83 132 -174 212 -212 60 -28 125 -39 112 -19 -3 6 -17 10 -31 10 -38 0
-105 43 -167 108 -47 50 -59 71 -81 141 -14 45 -26 96 -26 114 l1 32 22 -25
c28 -32 77 -70 89 -70 5 0 -7 19 -26 42 -20 23 -36 44 -36 47 0 11 15 27 43
44 l27 17 0 -37 c0 -22 11 -57 25 -81 14 -24 23 -47 21 -51 -3 -4 14 -6 37 -5
23 1 57 2 75 3 43 1 69 30 77 84 10 68 17 74 59 54 44 -20 47 -6 6 25 -16 12
-30 27 -30 34 0 24 -91 49 -181 49 l-87 0 -6 64 c-3 35 -4 67 -1 70 2 4 55 2
117 -4 l113 -10 43 -42 c58 -59 82 -60 40 -3 -28 38 -16 50 22 22 16 -12 35
-22 42 -22 7 0 35 -16 62 -35 67 -47 88 -45 42 5 -35 39 -102 158 -93 166 2 3
18 -17 35 -43 17 -26 53 -70 80 -97 48 -46 51 -48 83 -38 87 27 210 22 229 -9
6 -8 19 -9 46 -3 l39 8 -32 4 c-31 3 -33 6 -33 42 0 57 18 60 59 11 30 -35 42
-42 66 -41 17 2 37 0 45 -3 32 -12 83 -27 91 -27 4 0 10 8 12 18 3 9 5 3 6
-15 0 -17 -3 -34 -8 -37 -5 -3 -31 1 -57 9 -115 35 -232 12 -300 -60 -24 -25
-44 -47 -44 -49 0 -2 17 2 38 9 20 8 40 10 43 7 3 -4 11 -33 18 -65 13 -61 31
-77 86 -77 13 0 25 -5 27 -12 3 -7 7 -6 11 5 5 14 0 17 -26 17 -47 0 -67 19
-74 68 -6 42 -5 42 25 42 21 0 35 -7 42 -20 13 -25 27 -25 48 0 12 14 25 17
45 13 36 -7 35 -33 -4 -78 -17 -19 -29 -35 -26 -35 3 0 12 -3 21 -6 10 -4 16
-1 16 7 0 8 11 36 25 63 14 27 25 60 25 73 0 27 3 28 35 7 34 -22 31 -37 -11
-84 -41 -45 -32 -54 15 -14 l31 26 0 -70 c0 -82 -35 -321 -54 -366 -20 -48
-130 -143 -316 -271 -90 -63 -178 -104 -221 -105 -66 0 -407 223 -499 327 -23
26 -60 78 -82 116 -46 76 -201 493 -194 520 2 10 1 31 -4 48 -5 17 -4 58 1 97
12 75 57 237 65 229 3 -3 -2 -54 -12 -114z m-284 59 c32 -15 35 -21 38 -64 3
-43 -1 -53 -45 -110 -26 -35 -56 -75 -66 -88 -14 -21 -17 -21 -12 -5 2 11 9
75 14 142 8 116 14 144 29 143 4 -1 23 -9 42 -18z m-616 -28 c20 -8 21 -24 1
-24 -19 0 -19 -19 0 -26 19 -8 9 -24 -15 -24 -24 0 -37 20 -20 30 7 4 9 13 6
19 -4 6 -4 16 -1 21 7 12 8 12 29 4z m2050 -103 c-9 -9 -22 14 -28 49 l-6 35
19 -40 c11 -22 18 -42 15 -44z m-1380 -333 c3 -139 9 -319 12 -400 6 -134 5
-148 -10 -148 -9 0 -18 6 -21 13 -2 6 -8 144 -14 306 -6 161 -15 299 -19 306
-4 8 -7 -130 -7 -306 l0 -319 -27 0 c-16 0 -28 3 -28 8 0 4 -5 60 -10 126 -6
88 -13 123 -26 137 -15 17 -16 33 -9 146 11 187 11 188 20 204 26 45 120 179
126 179 3 0 9 -114 13 -252z m131 197 c14 -13 25 -31 25 -39 0 -8 3 -23 7 -33
4 -11 -9 -4 -35 20 -23 20 -48 37 -55 37 -6 0 0 -8 15 -18 33 -22 86 -87 103
-127 12 -26 11 -31 -6 -43 -23 -16 -25 -45 -2 -63 15 -13 15 -12 5 8 -13 23
-6 56 10 51 20 -7 119 -271 106 -283 -3 -3 -24 2 -47 11 -40 16 -99 78 -179
188 -37 51 -66 159 -58 219 12 88 63 121 111 72z m-291 -50 c-6 -16 -24 -21
-24 -7 0 11 11 22 21 22 5 0 6 -7 3 -15z m2531 -45 c4 -6 -14 -10 -47 -10 -38
0 -49 3 -38 10 20 13 77 13 85 0z m-1065 -25 c0 -12 -21 -25 -41 -25 -16 0
-10 29 8 39 20 11 33 6 33 -14z m-801 6 c12 -8 12 -12 2 -25 -18 -22 -41 -20
-41 2 0 31 14 39 39 23z m149 -47 c2 -25 -4 -50 -18 -71 -18 -31 -23 -33 -74
-33 -53 0 -57 2 -81 37 -34 50 -32 60 13 66 29 3 41 0 55 -17 l18 -21 16 23
c8 12 23 22 33 22 14 0 17 5 13 21 -4 16 -2 20 8 17 8 -3 15 -21 17 -44z m792
26 c0 -13 -5 -18 -15 -14 -8 4 -15 12 -15 20 0 8 7 14 15 14 8 0 15 -9 15 -20z
m-870 -30 c0 -5 -4 -10 -10 -10 -5 0 -10 5 -10 10 0 6 5 10 10 10 6 0 10 -4
10 -10z m790 6 c0 -11 -19 -15 -25 -6 -3 5 1 10 9 10 9 0 16 -2 16 -4z m348
-123 c10 -33 9 -40 -5 -50 -23 -18 -36 -16 -29 3 3 9 6 31 6 50 0 45 14 43 28
-3z m534 23 c19 12 113 12 120 0 6 -8 8 -7 8 2 0 24 21 12 35 -20 l14 -33 1
28 c0 24 2 26 20 15 10 -7 20 -26 22 -43 2 -17 8 -29 16 -28 6 2 12 -3 12 -11
0 -7 11 -34 25 -60 l24 -46 -22 -1 c-17 -1 -15 -3 8 -8 39 -8 45 -36 10 -45
-21 -5 -24 -10 -15 -21 9 -10 5 -15 -19 -20 -17 -3 -30 -10 -30 -13 4 -30 -3
-42 -26 -42 -18 0 -23 4 -19 15 12 31 -6 14 -20 -19 -8 -19 -24 -37 -35 -41
-12 -3 -22 -12 -22 -18 -1 -7 -5 20 -9 58 -4 39 -6 73 -3 78 2 4 22 7 44 7 34
0 39 -3 40 -22 1 -17 3 -15 11 11 14 51 6 61 -51 61 -44 0 -49 2 -44 20 3 11
13 20 22 20 9 0 22 4 30 9 21 13 -3 41 -29 34 -16 -4 -20 0 -20 21 0 22 4 26
30 26 24 0 30 4 30 21 0 18 -5 21 -30 17 -26 -4 -30 -1 -30 18 0 21 -22 39
-34 27 -3 -4 -6 -18 -6 -32 0 -21 -7 -28 -37 -38 -41 -12 -43 -11 -106 63
l-18 22 47 -9 c25 -5 51 -6 56 -3z m-503 -102 c10 -23 8 -30 -14 -60 -27 -35
-63 -60 -72 -50 -12 11 19 102 40 118 29 23 32 23 46 -8z m561 -18 c0 -21 -21
-31 -31 -15 -14 22 -11 29 11 29 11 0 20 -6 20 -14z m240 -11 c0 -8 -4 -15
-10 -15 -5 0 -7 7 -4 15 4 8 8 15 10 15 2 0 4 -7 4 -15z m-270 -235 c43 -73
64 -134 58 -170 -4 -25 -5 -25 -16 5 -33 81 -123 244 -170 308 l-53 72 71 -75
c39 -41 89 -104 110 -140z m-2420 -38 c0 -7 -4 -10 -10 -7 -5 3 -10 16 -10 28
0 18 2 19 10 7 5 -8 10 -21 10 -28z m-11 -83 c-18 -11 -23 -4 -14 18 5 10 9
21 10 26 6 21 8 20 12 -7 3 -17 -1 -32 -8 -37z m2511 -134 c0 -30 -4 -35 -32
-43 -18 -5 -35 -8 -37 -6 -4 3 58 84 65 84 2 0 4 -16 4 -35z m-63 -117 c-3 -7
-5 -2 -5 12 0 14 2 19 5 13 2 -7 2 -19 0 -25z m0 -80 c-3 -8 -6 -5 -6 6 -1 11
2 17 5 13 3 -3 4 -12 1 -19z m-340 -311 c-1 -7 6 -11 16 -9 10 2 17 -3 17 -12
0 -10 -6 -13 -15 -10 -8 4 -22 1 -30 -6 -13 -11 -15 -7 -15 23 0 28 3 35 15
31 8 -3 13 -11 12 -17z m-79 -34 c-2 -31 -7 -39 -26 -41 -12 -2 -20 -7 -17
-11 2 -5 -16 -3 -40 2 -44 10 -62 27 -29 27 13 0 14 3 4 14 -10 13 -4 17 37
30 72 22 75 21 71 -21z m486 -30 c-4 -16 -31 -77 -60 -138 -31 -66 -59 -142
-69 -190 l-17 -80 -82 -53 c-44 -29 -119 -80 -166 -113 l-84 -60 -31 93 c-17
51 -39 108 -48 126 -10 18 -15 38 -11 45 4 7 4 9 -1 5 -5 -5 -16 4 -25 20 -35
58 -35 58 63 118 184 114 465 251 520 253 14 1 16 -4 11 -26z m116 -20 c0 -15
-7 -52 -16 -84 -13 -46 -21 -58 -40 -62 -21 -4 -24 -1 -24 28 0 18 10 44 21
59 24 31 20 43 -10 27 -37 -21 -46 -51 -47 -174 -2 -111 -3 -120 -27 -145 -13
-15 -30 -37 -36 -50 -7 -12 -15 -21 -19 -18 -4 2 -8 -6 -8 -17 -9 -138 -10
-141 -34 -112 -9 11 -9 39 0 126 13 119 42 224 89 318 45 91 53 101 83 101 17
0 33 8 40 19 15 25 28 17 28 -16z m-1448 -350 c22 -20 23 -67 3 -213 -8 -58
-15 -139 -15 -181 0 -70 -2 -77 -30 -104 -29 -28 -30 -28 -50 -10 -17 16 -20
31 -21 119 0 56 -5 128 -10 161 -5 33 -12 93 -15 132 l-7 73 44 19 c55 24 78
25 101 4z m617 -55 c0 -33 24 -128 32 -128 17 0 19 41 4 84 -9 26 -14 53 -12
59 9 22 41 -67 41 -114 1 -25 6 -52 12 -60 6 -8 14 -30 18 -50 9 -52 -31 -88
-105 -95 -75 -7 -92 9 -94 81 0 43 -5 59 -23 75 -12 11 -22 26 -22 33 0 7 -6
24 -14 39 -11 21 -12 29 -2 37 9 8 18 -3 35 -43 12 -30 29 -57 38 -60 12 -5
13 -2 8 11 -4 10 -10 32 -12 48 -3 17 -12 36 -21 42 -20 16 -13 24 15 17 15
-4 28 -24 43 -65 20 -52 24 -57 41 -48 23 12 22 5 3 63 -13 37 -14 53 -5 72
13 30 21 31 20 2z m570 -10 c-33 -21 -69 -38 -69 -35 0 8 64 46 69 41 2 -2 2
-5 0 -6z m416 -19 c10 -15 -1 -23 -20 -15 -9 3 -13 10 -10 16 8 13 22 13 30
-1z m15 -51 c-1 -2 -9 -27 -19 -56 -17 -48 -17 -59 -5 -118 8 -35 22 -81 33
-102 10 -20 21 -48 25 -62 l7 -25 -22 25 c-35 41 -70 118 -76 170 -8 71 20
170 48 170 5 0 9 -1 9 -2z m-3327 -93 c-6 -40 11 -45 35 -12 16 21 36 23 28 2
-3 -9 0 -15 9 -15 20 0 19 -12 -4 -41 -10 -13 -21 -31 -25 -39 -3 -8 -4 0 -1
18 5 36 -10 35 -25 -2 -8 -21 -8 -21 -18 4 -9 24 -9 24 -16 4 -4 -14 -15 -21
-30 -21 -22 0 -23 3 -21 60 3 71 17 84 32 30 11 -35 11 -36 10 -8 -1 32 8 55
23 55 5 0 6 -16 3 -35z m-98 -15 c10 16 25 1 25 -26 0 -24 -14 -32 -25 -14 -4
6 -10 8 -14 6 -4 -3 -8 0 -8 7 0 7 -4 21 -8 32 -6 19 -6 19 8 2 10 -12 17 -14
22 -7z m2745 -20 c-9 -17 -14 -18 -30 -8 -10 7 -17 14 -15 17 3 2 11 -1 19 -8
11 -9 15 -8 20 4 3 8 8 15 11 15 3 0 1 -9 -5 -20z m-2725 -67 c4 -14 2 -23 -4
-23 -14 0 -33 38 -25 51 8 13 19 2 29 -28z m55 -48 c0 -9 -6 -12 -15 -9 -8 4
-12 10 -9 15 8 14 24 10 24 -6z m40 -7 c0 -17 -18 -44 -24 -37 -8 7 5 49 15
49 5 0 9 -6 9 -12z m-60 -65 c-1 -15 -3 -15 -20 6 -28 33 -27 63 0 33 11 -12
20 -29 20 -39z m-46 11 c4 -10 1 -14 -6 -12 -15 5 -23 28 -10 28 5 0 13 -7 16
-16z m68 -16 c-9 -9 -12 -7 -12 12 0 19 3 21 12 12 9 -9 9 -15 0 -24z m3018
-118 c5 0 11 -7 14 -16 6 -15 4 -15 -11 -3 -38 28 -93 84 -93 93 0 5 19 -9 42
-32 22 -23 44 -42 48 -42z m-1405 -4 c-15 -20 -29 -35 -31 -33 -3 2 4 25 13
50 15 40 19 45 31 33 12 -12 11 -19 -13 -50z m1983 4 c6 0 12 -5 12 -11 0 -13
-50 -3 -65 13 -7 8 -2 9 15 4 14 -3 31 -6 38 -6z m-528 -35 c4 3 11 -2 14 -10
4 -13 2 -14 -14 -5 -11 6 -20 16 -19 23 0 9 2 9 6 -1 2 -6 8 -10 13 -7z"/>
<path d="M487 3835 c-7 -15 1 -25 20 -25 7 0 13 6 13 14 0 19 -27 28 -33 11z"/>
<path d="M960 3403 c-23 -27 -46 -57 -52 -68 -5 -11 1 -6 14 10 13 17 38 47
57 68 18 20 31 37 28 37 -3 0 -24 -21 -47 -47z"/>
<path d="M800 3220 c20 -13 33 -13 25 0 -3 6 -14 10 -23 10 -15 0 -15 -2 -2
-10z"/>
<path d="M738 3213 c6 -2 18 -2 25 0 6 3 1 5 -13 5 -14 0 -19 -2 -12 -5z"/>
<path d="M1530 2459 c97 -30 120 -36 120 -33 0 11 -62 33 -105 38 -47 5 -48 5
-15 -5z"/>
<path d="M2124 2434 c-18 -14 -18 -14 6 -3 31 14 36 19 24 19 -6 0 -19 -7 -30
-16z"/>
<path d="M1297 2163 c-12 -11 -8 -23 8 -23 8 0 15 7 15 15 0 16 -12 20 -23 8z"/>
<path d="M1818 1743 c28 -2 76 -2 105 0 28 2 5 3 -53 3 -58 0 -81 -1 -52 -3z"/>
<path d="M821 2314 c0 -11 3 -14 6 -6 3 7 2 16 -1 19 -3 4 -6 -2 -5 -13z"/>
<path d="M1040 2196 c0 -2 8 -10 18 -17 15 -13 16 -12 3 4 -13 16 -21 21 -21
13z"/>
<path d="M1130 2121 c19 -17 38 -31 43 -31 16 0 -9 24 -45 43 l-33 18 35 -30z"/>
<path d="M3351 2114 c0 -11 3 -14 6 -6 3 7 2 16 -1 19 -3 4 -6 -2 -5 -13z"/>
<path d="M3251 1571 c-8 -5 -9 -11 -3 -15 5 -3 12 1 16 9 6 17 6 18 -13 6z"/>
<path d="M2996 813 c-31 -64 -40 -93 -27 -93 6 0 11 6 11 13 0 6 11 38 24 70
29 69 25 74 -8 10z"/>
<path d="M3241 817 c-11 -25 -23 -63 -26 -84 -4 -31 -2 -28 13 17 10 30 24 66
31 78 7 13 10 26 7 29 -3 3 -14 -15 -25 -40z"/>
<path d="M3197 661 c-4 -18 -7 -43 -6 -55 1 -11 5 -1 10 24 5 25 7 49 6 55 -2
5 -7 -5 -10 -24z"/>
<path d="M2600 382 c0 -4 9 -8 20 -9 11 -1 20 2 20 8 0 5 -9 9 -20 9 -11 0
-20 -4 -20 -8z"/>
<path d="M2510 360 c-13 -8 -12 -10 3 -10 9 0 17 5 17 10 0 12 -1 12 -20 0z"/>
<path d="M1253 3700 c0 -25 2 -35 4 -22 2 12 2 32 0 45 -2 12 -4 2 -4 -23z"/>
<path d="M755 810 c4 -14 9 -40 12 -57 3 -18 9 -31 14 -28 8 6 -14 92 -27 103
-4 4 -4 -4 1 -18z"/>
<path d="M510 516 c0 -3 9 -10 20 -16 11 -6 20 -8 20 -6 0 3 -9 10 -20 16 -11
6 -20 8 -20 6z"/>
<path d="M575 475 c30 -25 59 -39 51 -26 -4 6 -22 18 -39 27 -30 14 -31 14
-12 -1z"/>
<path d="M730 477 c0 -3 19 -20 43 -38 23 -19 36 -26 28 -16 -16 20 -71 61
-71 54z"/>
<path d="M2926 294 c-5 -14 -4 -15 9 -4 17 14 19 20 6 20 -5 0 -12 -7 -15 -16z"/>
<path d="M3056 134 c-5 -14 -4 -15 9 -4 17 14 19 20 6 20 -5 0 -12 -7 -15 -16z"/>
</g>
</svg>
